<svg width="1138" height="474" viewBox="0 0 1138 474" fill="none" xmlns="http://www.w3.org/2000/svg">
<g clip-path="url(#clip0_1_3)">
<path d="M435.412 137.909C431.847 157.449 438.652 175.03 436.265 196.08C434.176 219.117 424.428 241.447 418.509 265.659C409.925 293.341 413.489 325.603 396.395 346.899C386.03 355.903 381.582 343.306 381.152 330.194C380.575 309.82 386.147 287.193 387.137 266.439C388.972 235.993 384.172 210.091 370.715 186.901C357.082 161.305 321.728 145.909 308.274 179.844C302.76 196.73 309.547 215.422 313.97 232.281C318.945 249.609 320.172 267.887 316.179 285.65C309.318 319.719 288.072 349.804 285.274 384.465C282.241 415.873 307.592 439.911 338.075 440.879C364.638 442.282 387.89 429.591 414.966 428.509C425.575 427.807 436.24 428.201 446.893 429.098C467.513 430.448 494.047 437.075 508.96 420.061C526.218 397.158 500.627 369.5 488.126 349.724C474.567 330.446 474.346 306.208 481.179 284.278C492.218 243.61 523.394 200.315 516.306 154.987C513.675 138.189 503.877 121.762 488.54 114.529C467.926 103.578 439.825 114.881 435.53 137.392L435.412 137.909Z" fill="black"/>
<path d="M197.374 333.233C181.208 360.642 178.956 399.992 169.806 430.78C160.482 465.906 127.693 488.899 96.7016 462.707C80.5028 448.903 73.5581 422.141 69.5939 399.684C65.7639 379.737 62.2376 357.447 56.4443 336.149C47.3854 300.559 29.1284 268.662 15.4465 234.916C-2.09646 190.138 -9.72272 135.345 20.1453 98.3923C40.9594 73.5704 81.0527 69.9961 105.964 91.151C142.956 120.669 130.766 177.145 116.307 215.534C109.222 236.239 101.493 257.563 103.768 279.677C105.825 299.56 117.933 336.094 135.469 321.4C146.29 310.503 152.09 293.904 159.777 280.327C171.275 258.031 186.761 236.612 193.709 214.618C207.302 178.898 190.384 129.435 224.308 103.667C250.853 87.0707 278.743 117.233 284.394 142.767C302.677 218.771 232.891 276.154 197.692 332.655L197.374 333.233Z" fill="black"/>
<path d="M558.078 129.007C514.097 153.989 559.845 201.834 558.473 237.35C558.235 261.485 547.638 284.977 543.955 308.833C539.11 336.036 539.884 360.808 544.06 382.819C551.967 432.119 595.612 443.96 624.414 401.69C641.366 377.379 646.619 344.471 657.174 318.688C667.529 291.298 688.217 271.118 706.985 249.272C719.775 235.159 734.921 207.731 748.685 199.769C774.932 186.794 762.684 247.371 761.781 263.878C759.703 280.455 757.536 297.33 753.595 313.645C744.314 349.947 719.204 396.759 750.222 427.316C764.892 441.082 788.064 441.647 806.982 436.422C832.029 430.516 850.422 411.532 850.336 385.092C851.258 362.073 842.847 338.758 839.659 316.28C836.662 297.066 838.066 279.686 840.968 259.557C845.309 231.22 847.78 200.225 837.818 172.505C820.934 123.592 784.549 98.4683 732.396 119.045C721.061 123.23 710.251 128.839 700.418 135.955C683.314 145.588 657.228 186.899 638.752 180.716C627.419 175.831 622.577 156.828 614.3 144.388C603.112 124.398 578.267 117.632 558.605 128.724L558.078 129.007Z" fill="black"/>
<path d="M1133.53 361.919C1126.43 346.079 1109.59 338.848 1093.22 336.536C1074.77 333.494 1050.89 334.897 1035.53 332.266C1027.17 331.368 1009.88 325.695 1022.13 316.314C1043.5 302.036 1087.99 297.517 1104.59 270.317C1115.89 254.134 1117.74 230.976 1112.65 210.987C1100.88 160.629 1042.58 128.553 992.785 132.569C910.155 138.376 832.054 287.586 873.821 358.951C891.042 388.069 901.471 409.944 931.722 420.606C959.955 430.2 1013.53 428.094 1042.34 434.89C1069.6 441.018 1105.21 448.751 1124.66 423.347C1136.87 407.283 1142.49 381.771 1133.77 362.45L1133.53 361.919ZM962.726 249.477C972.018 230.096 987.696 200.967 1013.55 198.325C1051.24 199.55 1054.71 244.8 1027.98 264.341C1002.6 285.357 938.727 302.625 962.427 250.187L962.726 249.477Z" fill="black"/>
<path d="M932.757 112.867C933.281 109.686 936.106 107.518 938.412 105.264C948.126 95.8941 951.084 81.7798 954.531 68.7462C959.374 50.275 966.478 31.6425 980.118 18.2854C998.72 0.110806 1028.75 -5.21714 1052.44 5.47959C1058.74 8.31663 1064.86 12.4896 1067.87 18.6859C1072.2 27.6644 1068.78 38.9028 1062 46.2221C1055.2 53.536 1045.69 57.6056 1036.25 60.853C1025.44 62.2431 1014.81 67.0935 1006.39 74.043C995.664 82.8791 988.493 95.2335 979.213 105.608C969.934 115.982 956.804 124.823 943.036 122.758C937.758 121.99 931.897 118.092 932.757 112.867Z" fill="black"/>
</g>
<defs>
<clipPath id="clip0_1_3">
<rect width="1138" height="474" fill="white"/>
</clipPath>
</defs>
</svg>